<?xml version="1.0" encoding="UTF-8"?><svg id="a" xmlns="http://www.w3.org/2000/svg" width="320" height="96" viewBox="0 0 320 96"><polygon points="13.553 12.5 13.5 20.5 17.5 16.506 13.553 12.5" fill="#fff" stroke="#6e6e6e" stroke-linecap="round" stroke-linejoin="round"/><polygon points="77.566 75.5 77.5 84.5 82.5 80.006 77.566 75.5" fill="#bd2b30" stroke="#bd2b30" stroke-linecap="round" stroke-linejoin="round"/><polygon points="49.5 12.5 44.5 17.459 49.5 17.5 49.5 12.5" fill="#161616" stroke="#161616" stroke-linecap="round" stroke-linejoin="round"/><polygon points="51.5 49.5 46.541 44.5 46.5 49.5 51.5 49.5" fill="#161616" stroke="#161616" stroke-linecap="round" stroke-linejoin="round"/><polygon points="18.5 52.489 18.553 44.5 14.5 48.489 18.5 52.489" fill="#fff" stroke="#6e6e6e" stroke-linecap="round" stroke-linejoin="round"/><rect x="79" width="1" height="1" fill="#161616"/><rect x="79" y="2" width="1" height="1" fill="#161616"/><rect x="79" y="4" width="1" height="1" fill="#161616"/><rect x="79" y="6" width="1" height="1" fill="#161616"/><rect x="79" y="8" width="1" height="1" fill="#161616"/><rect x="79" y="10" width="1" height="1" fill="#161616"/><rect x="79" y="12" width="1" height="1" fill="#161616"/><rect x="79" y="14" width="1" height="1" fill="#161616"/><rect x="79" y="16" width="1" height="1" fill="#161616"/><rect x="81" y="16" width="1" height="1" fill="#161616"/><rect x="83" y="16" width="1" height="1" fill="#161616"/><rect x="85" y="16" width="1" height="1" fill="#161616"/><rect x="87" y="16" width="1" height="1" fill="#161616"/><rect x="89" y="16" width="1" height="1" fill="#161616"/><rect x="91" y="16" width="1" height="1" fill="#161616"/><rect x="93" y="16" width="1" height="1" fill="#161616"/><rect x="80" y="32" width="1" height="1" fill="#6e6e6e"/><rect x="80" y="34" width="1" height="1" fill="#6e6e6e"/><rect x="80" y="36" width="1" height="1" fill="#6e6e6e"/><rect x="80" y="38" width="1" height="1" fill="#6e6e6e"/><rect x="80" y="40" width="1" height="1" fill="#6e6e6e"/><rect x="80" y="42" width="1" height="1" fill="#6e6e6e"/><rect x="80" y="44" width="1" height="1" fill="#6e6e6e"/><rect x="80" y="46" width="1" height="1" fill="#6e6e6e"/><rect x="80" y="48" width="1" height="1" fill="#6e6e6e"/><rect x="66" y="48" width="1" height="1" fill="#6e6e6e"/><rect x="68" y="48" width="1" height="1" fill="#6e6e6e"/><rect x="70" y="48" width="1" height="1" fill="#6e6e6e"/><rect x="72" y="48" width="1" height="1" fill="#6e6e6e"/><rect x="74" y="48" width="1" height="1" fill="#6e6e6e"/><rect x="76" y="48" width="1" height="1" fill="#6e6e6e"/><rect x="78" y="48" width="1" height="1" fill="#6e6e6e"/><rect x="112" y="32" width="1" height="1" fill="#6e6e6e"/><rect x="112" y="34" width="1" height="1" fill="#6e6e6e"/><rect x="112" y="36" width="1" height="1" fill="#6e6e6e"/><rect x="112" y="38" width="1" height="1" fill="#6e6e6e"/><rect x="112" y="40" width="1" height="1" fill="#6e6e6e"/><rect x="112" y="42" width="1" height="1" fill="#6e6e6e"/><rect x="112" y="44" width="1" height="1" fill="#6e6e6e"/><rect x="112" y="46" width="1" height="1" fill="#6e6e6e"/><rect x="112" y="48" width="1" height="1" fill="#6e6e6e"/><rect x="98" y="48" width="1" height="1" fill="#6e6e6e"/><rect x="100" y="48" width="1" height="1" fill="#6e6e6e"/><rect x="102" y="48" width="1" height="1" fill="#6e6e6e"/><rect x="104" y="48" width="1" height="1" fill="#6e6e6e"/><rect x="106" y="48" width="1" height="1" fill="#6e6e6e"/><rect x="108" y="48" width="1" height="1" fill="#6e6e6e"/><rect x="110" y="48" width="1" height="1" fill="#6e6e6e"/><rect x="144" y="32" width="1" height="1" fill="#6e6e6e"/><rect x="144" y="34" width="1" height="1" fill="#6e6e6e"/><rect x="144" y="36" width="1" height="1" fill="#6e6e6e"/><rect x="144" y="38" width="1" height="1" fill="#6e6e6e"/><rect x="144" y="40" width="1" height="1" fill="#6e6e6e"/><rect x="144" y="42" width="1" height="1" fill="#6e6e6e"/><rect x="144" y="44" width="1" height="1" fill="#6e6e6e"/><rect x="144" y="46" width="1" height="1" fill="#6e6e6e"/><rect x="144" y="48" width="1" height="1" fill="#6e6e6e"/><rect x="130" y="48" width="1" height="1" fill="#6e6e6e"/><rect x="132" y="48" width="1" height="1" fill="#6e6e6e"/><rect x="134" y="48" width="1" height="1" fill="#6e6e6e"/><rect x="136" y="48" width="1" height="1" fill="#6e6e6e"/><rect x="138" y="48" width="1" height="1" fill="#6e6e6e"/><rect x="140" y="48" width="1" height="1" fill="#6e6e6e"/><rect x="142" y="48" width="1" height="1" fill="#6e6e6e"/><rect x="111" width="1" height="1" fill="#161616"/><rect x="111" y="2" width="1" height="1" fill="#161616"/><rect x="111" y="4" width="1" height="1" fill="#161616"/><rect x="111" y="6" width="1" height="1" fill="#161616"/><rect x="111" y="8" width="1" height="1" fill="#161616"/><rect x="111" y="10" width="1" height="1" fill="#161616"/><rect x="303" width="1" height="1" fill="#161616"/><rect x="303" y="2" width="1" height="1" fill="#161616"/><rect x="303" y="4" width="1" height="1" fill="#161616"/><rect x="303" y="6" width="1" height="1" fill="#161616"/><rect x="303" y="8" width="1" height="1" fill="#161616"/><rect x="303" y="10" width="1" height="1" fill="#161616"/><rect x="303" y="12" width="1" height="1" fill="#161616"/><rect x="303" y="14" width="1" height="1" fill="#161616"/><rect x="303" y="16" width="1" height="1" fill="#161616"/><rect x="303" y="18" width="1" height="1" fill="#161616"/><rect x="303" y="20" width="1" height="1" fill="#161616"/><rect x="303" y="22" width="1" height="1" fill="#161616"/><rect x="303" y="24" width="1" height="1" fill="#161616"/><rect x="303" y="26" width="1" height="1" fill="#161616"/><rect x="303" y="28" width="1" height="1" fill="#161616"/><rect x="303" y="30" width="1" height="1" fill="#161616"/><rect x="303" y="32" width="1" height="1" fill="#161616"/><rect x="303" y="34" width="1" height="1" fill="#161616"/><rect x="303" y="36" width="1" height="1" fill="#161616"/><rect x="303" y="38" width="1" height="1" fill="#161616"/><rect x="303" y="40" width="1" height="1" fill="#161616"/><rect x="303" y="42" width="1" height="1" fill="#161616"/><rect x="303" y="44" width="1" height="1" fill="#161616"/><rect x="303" y="46" width="1" height="1" fill="#161616"/><rect x="303" y="48" width="1" height="1" fill="#161616"/><rect x="303" y="50" width="1" height="1" fill="#161616"/><rect x="303" y="52" width="1" height="1" fill="#161616"/><rect x="303" y="54" width="1" height="1" fill="#161616"/><rect x="303" y="56" width="1" height="1" fill="#161616"/><rect x="303" y="58" width="1" height="1" fill="#161616"/><rect x="303" y="60" width="1" height="1" fill="#161616"/><rect x="303" y="62" width="1" height="1" fill="#161616"/><rect x="303" y="64" width="1" height="1" fill="#161616"/><rect x="303" y="66" width="1" height="1" fill="#161616"/><rect x="303" y="68" width="1" height="1" fill="#161616"/><rect x="303" y="70" width="1" height="1" fill="#161616"/><rect x="303" y="72" width="1" height="1" fill="#161616"/><rect x="303" y="74" width="1" height="1" fill="#161616"/><rect x="303" y="76" width="1" height="1" fill="#161616"/><rect x="303" y="78" width="1" height="1" fill="#161616"/><rect x="303" y="80" width="1" height="1" fill="#161616"/><rect x="303" y="82" width="1" height="1" fill="#161616"/><rect x="303" y="84" width="1" height="1" fill="#161616"/><rect x="303" y="86" width="1" height="1" fill="#161616"/><rect x="303" y="88" width="1" height="1" fill="#161616"/><rect x="303" y="90" width="1" height="1" fill="#161616"/><rect x="303" y="92" width="1" height="1" fill="#161616"/><rect x="303" y="94" width="1" height="1" fill="#161616"/><rect x="111" y="12" width="1" height="1" fill="#161616"/><rect x="111" y="14" width="1" height="1" fill="#161616"/><rect x="111" y="16" width="1" height="1" fill="#161616"/><rect x="113" y="16" width="1" height="1" fill="#161616"/><rect x="115" y="16" width="1" height="1" fill="#161616"/><rect x="117" y="16" width="1" height="1" fill="#161616"/><rect x="119" y="16" width="1" height="1" fill="#161616"/><rect x="121" y="16" width="1" height="1" fill="#161616"/><rect x="123" y="16" width="1" height="1" fill="#161616"/><rect x="125" y="16" width="1" height="1" fill="#161616"/><rect x="143" width="1" height="1" fill="#161616"/><rect x="143" y="2" width="1" height="1" fill="#161616"/><rect x="143" y="4" width="1" height="1" fill="#161616"/><rect x="143" y="6" width="1" height="1" fill="#161616"/><rect x="143" y="8" width="1" height="1" fill="#161616"/><rect x="143" y="10" width="1" height="1" fill="#161616"/><rect x="143" y="12" width="1" height="1" fill="#161616"/><rect x="143" y="14" width="1" height="1" fill="#161616"/><rect x="143" y="16" width="1" height="1" fill="#161616"/><rect x="145" y="16" width="1" height="1" fill="#161616"/><rect x="147" y="16" width="1" height="1" fill="#161616"/><rect x="149" y="16" width="1" height="1" fill="#161616"/><rect x="151" y="16" width="1" height="1" fill="#161616"/><rect x="153" y="16" width="1" height="1" fill="#161616"/><rect x="155" y="16" width="1" height="1" fill="#161616"/><rect x="157" y="16" width="1" height="1" fill="#161616"/><polygon points="109.553 12.5 109.5 20.5 113.5 16.506 109.553 12.5" fill="#fff" stroke="#6e6e6e" stroke-linecap="round" stroke-linejoin="round"/><polygon points="114.447 52.5 114.5 44.5 110.5 48.494 114.447 52.5" fill="#fff" stroke="#999" stroke-linecap="round" stroke-linejoin="round"/><polygon points="145.5 12.5 140.5 17.459 145.5 17.5 145.5 12.5" fill="#161616" stroke="#161616" stroke-linecap="round" stroke-linejoin="round"/><polygon points="147.5 49.5 142.541 44.5 142.5 49.5 147.5 49.5" fill="#999" stroke="#999" stroke-linecap="round" stroke-linejoin="round"/><rect x="166.5" y="6.5" width="19" height="19" rx="3.5" ry="3.5" fill="#fff"/><path d="M182,7c1.654,0,3,1.346,3,3v12c0,1.654-1.346,3-3,3h-12c-1.654,0-3-1.346-3-3v-12c0-1.654,1.346-3,3-3h12M182,6h-12c-2.209,0-4,1.791-4,4v12c0,2.209,1.791,4,4,4h12c2.209,0,4-1.791,4-4v-12c0-2.209-1.791-4-4-4h0Z" fill="#161616"/><rect x="198.5" y="6.5" width="19" height="19" rx="3.5" ry="3.5" fill="#fff"/><path d="M214,7c1.654,0,3,1.346,3,3v12c0,1.654-1.346,3-3,3h-12c-1.654,0-3-1.346-3-3v-12c0-1.654,1.346-3,3-3h12M214,6h-12c-2.209,0-4,1.791-4,4v12c0,2.209,1.791,4,4,4h12c2.209,0,4-1.791,4-4v-12c0-2.209-1.791-4-4-4h0Z" fill="#161616"/><path d="M264,23.5c-.827,0-1.5-.673-1.5-1.5v-10.5c0-1.103.897-2,2-2h15.5c.827,0,1.5.673,1.5,1.5v11c0,.827-.673,1.5-1.5,1.5h-16Z" fill="#f2f2f2"/><path d="M280,10c.551,0,1,.449,1,1v11c0,.551-.449,1-1,1h-16c-.551,0-1-.449-1-1v-10.5c0-.827.673-1.5,1.5-1.5h15.5M280,9h-15.5c-1.381,0-2.5,1.119-2.5,2.5v10.5c0,1.105.895,2,2,2h16c1.105,0,2-.895,2-2v-11c0-1.105-.895-2-2-2h0Z" fill="#6e6e6e"/><path d="M264,23.5c-.827,0-1.5-.673-1.5-1.5v-12c0-.827.673-1.5,1.5-1.5h5c.827,0,1.5.673,1.5,1.5v2c0,.276.224.5.5.5h9.5c.551,0,1,.449,1,1v8.5c0,.827-.673,1.5-1.5,1.5h-16Z" fill="#f2f2f2"/><path d="M269,9c.551,0,1,.449,1,1v2c0,.552.448,1,1,1h9.5c.276,0,.5.224.5.5v8.5c0,.551-.449,1-1,1h-16c-.551,0-1-.449-1-1v-12c0-.551.449-1,1-1h5M269,8h-5c-1.1,0-2,.9-2,2v12c0,1.1.9,2,2,2h16c1.1,0,2-.9,2-2v-8.5c0-.83-.67-1.5-1.5-1.5h-9.5v-2c0-1.1-.9-2-2-2h0Z" fill="#6e6e6e"/><rect x="202" y="10" width="12" height="12" rx="1.5" ry="1.5" fill="#bd2b30"/><rect x="230" y="6" width="20" height="20" rx="4" ry="4" fill="#bd2b30"/><path d="M235.813,16.397l3,3,6-6" fill="none" stroke="#fff" stroke-linecap="round" stroke-linejoin="round" stroke-width="3"/><rect x="166.5" y="38.5" width="19" height="19" rx="3.5" ry="3.5" fill="#fff"/><path d="M182,39c1.654,0,3,1.346,3,3v12c0,1.654-1.346,3-3,3h-12c-1.654,0-3-1.346-3-3v-12c0-1.654,1.346-3,3-3h12M182,38h-12c-2.209,0-4,1.791-4,4v12c0,2.209,1.791,4,4,4h12c2.209,0,4-1.791,4-4v-12c0-2.209-1.791-4-4-4h0Z" fill="#bd2b30"/><rect x="198.5" y="38.5" width="19" height="19" rx="3.5" ry="3.5" fill="#fff"/><path d="M214,39c1.654,0,3,1.346,3,3v12c0,1.654-1.346,3-3,3h-12c-1.654,0-3-1.346-3-3v-12c0-1.654,1.346-3,3-3h12M214,38h-12c-2.209,0-4,1.791-4,4v12c0,2.209,1.791,4,4,4h12c2.209,0,4-1.791,4-4v-12c0-2.209-1.791-4-4-4h0Z" fill="#bd2b30"/><rect x="202" y="42" width="12" height="12" rx="1.5" ry="1.5" fill="#6e6e6e"/><rect x="230" y="38" width="20" height="20" rx="4" ry="4" fill="#6e6e6e"/><path d="M235.813,48.397l3,3,6-6" fill="none" stroke="#fff" stroke-linecap="round" stroke-linejoin="round" stroke-width="3"/><rect x="273" y="40" width="7" height="2" rx="1" ry="1" fill="#161616"/><rect x="273" y="54" width="7" height="2" rx="1" ry="1" fill="#161616"/><rect x="263.5" y="43.5" width="17" height="9" rx=".5" ry=".5" fill="#fff"/><path d="M280,44v8h-16v-8h16M280,43h-16c-.552,0-1,.448-1,1v8c0,.552.448,1,1,1h16c.552,0,1-.448,1-1v-8c0-.552-.448-1-1-1h0Z" fill="#6e6e6e"/><rect x="269.5" y="47" width="14" height="2" transform="translate(324.5 -228.5) rotate(90)" fill="#161616"/><path d="M15.985,72.069c-4.411,0-8,3.589-8,8s3.589,8,8,8,8-3.589,8-8-3.589-8-8-8Z" fill="#bd2b30"/><path d="M15.167,83.5h0c-.272,0-.532-.111-.72-.306l-2.167-2.25c-.383-.398-.371-1.031.026-1.414.399-.383,1.031-.371,1.414.026l1.446,1.502,3.613-3.752c.383-.397,1.016-.409,1.414-.026.397.383.41,1.016.026,1.414l-4.333,4.5c-.188.195-.448.306-.72.306Z" fill="#fff"/><line x1="54" y1="86" x2="42" y2="74" fill="none" stroke="#6e6e6e" stroke-linecap="round" stroke-linejoin="round" stroke-width="2"/><line x1="54" y1="74" x2="42" y2="86" fill="none" stroke="#6e6e6e" stroke-linecap="round" stroke-linejoin="round" stroke-width="2"/><path d="M107,88.5c-.827,0-1.5-.673-1.5-1.5v-14c0-.827.673-1.5,1.5-1.5h6.586c.131,0,.26.053.354.146l4.414,4.414c.093.093.146.222.146.354v10.586c0,.827-.673,1.5-1.5,1.5h-10Z" fill="#f2f2f2"/><path d="M113.586,72l4.414,4.414v10.586c0,.551-.449,1-1,1h-10c-.551,0-1-.449-1-1v-14c0-.551.449-1,1-1h6.586M113.586,71h-6.586c-1.1,0-2,.9-2,2v14c0,1.1.9,2,2,2h10c1.1,0,2-.9,2-2v-10.586c0-.265-.105-.52-.293-.707l-4.414-4.414c-.188-.188-.442-.293-.707-.293h0Z" fill="#6e6e6e"/><path d="M115,76.5c-.827,0-1.5-.673-1.5-1.5v-3.5h.086c.131,0,.26.053.354.146l4.414,4.414c.093.093.146.222.146.354v.086h-3.5Z" fill="#f2f2f2"/><path d="M114,72.414l3.586,3.586h-2.586c-.551,0-1-.449-1-1v-2.586M113.586,71h-.586v4c0,1.105.895,2,2,2h4v-.586c0-.265-.105-.52-.293-.707l-4.414-4.414c-.188-.188-.442-.293-.707-.293h0Z" fill="#6e6e6e"/></svg>