<svg xmlns="http://www.w3.org/2000/svg" width="16" height="16"><path d="M13.25 3h-1.26V1.5c0-.83-.67-1.5-1.5-1.5h-5c-.83 0-1.5.67-1.5 1.5V3H2.75C1.78 3 1 3.78 1 4.75v2.5c0 .41.34.75.75.75H2l-.01 6.25c0 .97.78 1.75 1.75 1.75h8.5c.97 0 1.75-.78 1.75-1.75V8h.26c.41 0 .75-.34.75-.75v-2.5C15 3.78 14.22 3 13.25 3ZM5.99 13.25a.75.75 0 0 1-1.5 0v-4.5a.75.75 0 0 1 1.5 0v4.5Zm2.75 0a.75.75 0 0 1-1.5 0v-4.5a.75.75 0 0 1 1.5 0v4.5Zm2.75 0a.75.75 0 0 1-1.5 0v-4.5a.75.75 0 0 1 1.5 0v4.5ZM5.5 1.5h5V3h-5V1.5Z"/><path fill="none" d="M0 0h16v16H0z"/></svg>