<svg xmlns="http://www.w3.org/2000/svg" width="16" height="16"><defs><linearGradient id="a" x1="15.12" x2="11.92" y1="7.26" y2="2.14" gradientUnits="userSpaceOnUse"><stop offset="0" stop-opacity=".25"/><stop offset=".95" stop-opacity="0"/></linearGradient><linearGradient id="b" x1="9.28" x2="15.09" y1="15.35" y2="9.57" gradientUnits="userSpaceOnUse"><stop offset="0" stop-opacity=".5"/><stop offset="1" stop-opacity=".25"/></linearGradient><linearGradient id="c" x1=".79" x2="6.53" y1="6.79" y2="1.02" gradientUnits="userSpaceOnUse"><stop offset="0" stop-opacity=".75"/><stop offset="1"/></linearGradient><linearGradient id="d" x1="6.64" x2=".9" y1="15.31" y2="9.51" gradientUnits="userSpaceOnUse"><stop offset="0" stop-opacity=".5"/><stop offset="1" stop-opacity=".75"/></linearGradient></defs><path fill="url(#a)" d="M11.38.75a1 1 0 1 0-.85 1.8A6.03 6.03 0 0 1 14 8h2A8 8 0 0 0 11.38.75Z"/><path fill="url(#b)" d="M14 8a6 6 0 0 1-6 6v2a8 8 0 0 0 8-8h-2Z"/><path fill="url(#c)" d="M8 2a1 1 0 0 0 0-2 8 8 0 0 0-8 8h2a6 6 0 0 1 6-6Z"/><path fill="url(#d)" d="M2 8H0a8 8 0 0 0 8 8v-2a6 6 0 0 1-6-6Z"/></svg>