<svg xmlns="http://www.w3.org/2000/svg" version="1.1" xmlns:xlink="http://www.w3.org/1999/xlink" xmlns:svgjs="http://svgjs.dev/svgjs" width="16" height="16"><svg id="SvgjsSvg1057" xmlns="http://www.w3.org/2000/svg" width="16" height="16" viewBox="0 0 16 16"><path d="M8.749,13.148l2.619-1.514-.046,2.873-2.569,1.494-.004-2.852ZM8.784,7.15s2.677-1.296,2.687-1.296-.067,3.498-.067,3.498l-2.62,1.362v-3.564ZM13.157,10.601l2.304-1.343-.194,2.983-2.235,1.255.125-2.895ZM13.239,8.459l.141-3.512,2.429-1.162-.215,3.463-2.355,1.211ZM12.028,1.622l2.596,1.044-2.182,1.051-2.711-1.158,2.297-.936ZM7.999,3.337l2.735,1.216-2.735,1.337-2.733-1.338,2.733-1.216ZM7.251,13.148l-.004,2.852-2.569-1.494-.046-2.873,2.619,1.514ZM7.216,7.15v3.564l-2.62-1.362s-.076-3.498-.067-3.498c.01,0,2.687,1.296,2.687,1.296ZM2.843,10.601l.125,2.895-2.236-1.255-.194-2.983,2.304,1.343ZM2.761,8.458L.406,7.248l-.215-3.463,2.429,1.162.141,3.512ZM3.972,1.622l2.297.936-2.711,1.158-2.182-1.051,2.596-1.044ZM8.001,1.837l-2.238-.939,2.238-.898,2.236.899-2.236.939Z" fill="#bd2b30"></path></svg><style>@media (prefers-color-scheme: light) { :root { filter: none; } }
@media (prefers-color-scheme: dark) { :root { filter: contrast(0.3846153846153846) brightness(4.5); } }
</style></svg>